<?xml version="1.0" encoding="UTF-8"?>
<svg id="Layer_1" data-name="Layer 1" xmlns="http://www.w3.org/2000/svg" viewBox="0 0 312.69 200.96">
  <defs>
    <style>
      .cls-1 {
        fill: #6f9492;
      }

      .cls-1, .cls-2 {
        stroke-width: 0px;
      }

      .cls-2 {
        fill: #1f5c5a;
      }
    </style>
  </defs>
  <path class="cls-2" d="m139.95,1.16c3.32.15,6.61.04,9.77-1.16,2.4.44,4.81.53,7.21.02,10.65.45,21.32.57,31.89,2.19,0,0,0-.02,0-.02.81,1.02,1.9,1.2,3.11,1.02.78.78,1.74,1.02,2.81.98.8.96,1.84,1.34,3.06,1.28.64.24,1.28.49,1.92.73.52.81,1.29,1.03,2.19.9h0c.12.54.43.74.96.5.52.24,1.03.47,1.55.71.49.27.98.53,1.47.8h.01c.11.56.42.8.99.64.44.22.89.44,1.33.67.52.35,1.04.7,1.56,1.06.36.22.71.43,1.07.65.12.57.46.82,1.04.72.63.44,1.27.88,1.9,1.31.38.9,1.1,1.36,2.03,1.51.15.35.41.47.77.37.3,1.2,1.2,1.76,2.28,2.13.36.99,1.09,1.58,2.05,1.93.33.32.66.63.98.95.71,1.28,1.6,2.38,2.92,3.07.33.38.67.76,1,1.14.27.32.53.64.8.96.77,1.59,1.63,3.11,3.13,4.15.74,1.27,1.35,2.63,2.24,3.78,2.96,3.83,2.63,7.21-1.13,10.26-.56-.13-.88.11-.99.66,0,0,0,0,0,0-.47.29-.94.57-1.41.86-1.06.11-1.93.58-2.61,1.41l-1.13.68c-.34.19-.67.38-1.01.57-.95.08-1.74.43-2.2,1.32-.58.32-1.15.63-1.73.95-.43.31-.85.61-1.28.92h-.06c-3.57,1.28-6.92,2.96-9.65,5.68-.31.17-.62.33-.93.49-1.63.15-2.95.87-3.99,2.13-.37.2-.74.4-1.11.61-.49-.26-.67-.02-.71.44l-.12.07c-1.71.41-3.28,1.08-4.36,2.57l.03-.05c-.33.06-.66.07-.97.17-11.46,3.57-22.92,7.38-32.54-4.06-1.62-1.92-3.58-2.55-5.2.21-2.09,1.39-3.81,3.07-4.33,5.67v.03c-.18.45-.37.9-.56,1.35l-.02.08c-1.2,1.45-1.28,3.12-.95,4.87,0,.68,0,1.35,0,2.03-.35,2.3.07,4.41,1.55,6.25v.03c.51,2.42,2.04,4.07,4.07,5.34,2.8,4.32,4.67.72,6.53-.91,2.18-1.91,3.3-5.36,6.79-5.29,8.64.16,17.56-1.97,25.69,2.85l-.04-.06c.42.9,1.18,1.25,2.12,1.32,1.33,1.31,2.89,2.22,4.7,2.68.85,1.01,1.88,1.71,3.24,1.81,2.43,2.14,5.14,3.82,8.18,4.95.57.94,1.49,1.28,2.51,1.45,0,0,.07,0,.07,0l1.31.85c3.68,2.23,7.37,4.43,11.04,6.68,3.24,1.99,3.93,4.73,2.2,8.09-.68,1.32-1.42,2.61-2.13,3.92-1.42,1-2.15,2.49-2.82,4.01-3.1,3.23-6.21,6.45-9.31,9.68-1.16.96-2.32,1.93-3.48,2.89-8.03,5.97-17.11,9.84-26.45,13.2-15.78,2.41-31.61,2.87-47.45.86-4.72-.6-9.34-2.02-14.01-3.07,0,0-.07,0-.07,0l-1.36-.6c-9.57-4.23-18.2-9.91-25.82-17.09-.7-1.36-1.69-2.45-3.03-3.21-.73-.89-1.47-1.78-2.2-2.67-.49-1.44-1.29-2.67-2.53-3.59-5.24-8.19-8.99-17.03-11.53-26.4.14-1.19.19-2.36-.56-3.41-.82-8.33-.75-16.64.2-24.96.71-1.1.84-2.32.75-3.59,2.52-8.69,6.69-16.65,10.76-24.65.9,0,1.26-.58,1.45-1.35.37-.09.54-.33.52-.71,1.01-.47,1.56-1.28,1.72-2.37.48-.54.96-1.08,1.45-1.62,1.02-.58,2-1.18,2.06-2.54,5.58-4.5,10.85-9.4,16.96-13.23.55-.39,1.1-.78,1.64-1.17,1.66-.02,2.97-.84,4.22-1.81.35-.18.7-.36,1.05-.53,1.51-.18,2.91-.62,4.05-1.68.67-.23,1.34-.45,2.01-.68.29-.1.58-.19.87-.29.33-.08.65-.16.98-.24,2.33-.43,4.67-.85,7-1.28.66.14,1.11-.11,1.36-.73l.33.09.29-.19Zm31.67,9.37c-.83,0-1.67-.02-2.5,0-27.39.85-50.9,18.92-58.55,45.02-7.54,25.7,2.3,53.07,24.64,68.61,26.63,18.52,63.8,13.31,83.79-11.62,2.43-3.03,2.68-4.62-1.17-6.65-7.36-3.88-14.51-8.17-21.58-12.56-2.86-1.78-4.6-1.61-7.28.69-12.69,10.92-31.41,8.61-40.97-4.74-8.26-11.52-6.71-27.04,3.66-36.85,10.17-9.61,26.06-10.21,36.95-.99,2.9,2.45,4.89,2.84,8.15.78,6.9-4.35,14.01-8.38,21.2-12.22,3.6-1.92,3.97-3.47,1.25-6.61-12.59-14.54-28.35-22.28-47.59-22.87Z"/>
  <path class="cls-2" d="m44.25,188.4c-.01-3.47-.03-6.94-.04-10.41.64-.54.72-1.24.57-2.01,4.88-8.98,12.68-11.11,22.11-9.38,1.04.45,2.07.89,3.11,1.34,0,0,.15.28.15.28h.32c.49.32.98.64,1.47.95.35.28.71.56,1.06.84.33.34.65.69.98,1.03,1.05,1.65,2.09,3.3,3.14,4.95-.11.78.04,1.48.7,1.99-.02,3.49-.04,6.98-.07,10.47-.93.92-1.27,2.09-1.38,3.35-1.46,1.74-2.91,3.48-4.37,5.22-.46.27-.92.55-1.37.82-.27.27-.53.54-.8.82-1.06.08-2.12.14-2.9,1.01-9.39,1.43-17.39-.3-22.01-9.69-.22-.53-.44-1.06-.66-1.6Zm8.83-8.18l-.35.21.23.31c-.76,1.4-.84,2.81-.08,4.24-.46,1.12-.09,1.94.9,2.54.38.57.76,1.14,1.14,1.71l-.17.07s.14-.11.14-.11c.33.29.66.59.99.88.36.92,1.06,1.28,2.02,1.23.59.65,1.33.74,2.14.57,2.53,1.09,4.49.23,6.11-1.78.31-.3.62-.59.93-.89l.12.1-.16-.06c.81-.64,1.4-1.39,1.32-2.5,2.02-2.48,1.99-4.95-.06-7.39.18-.72-.13-1.2-.76-1.52-.16-.93-.65-1.54-1.6-1.71l-.05-.04c-.29-.92-.96-1.23-1.87-1.14l.05.03c-.2-.49-.52-.67-1.02-.39-1.34-.75-2.7-.77-4.1-.18-.56-.23-.93-.04-1.12.52l.07-.04c-.89-.02-1.55.3-1.8,1.22l-.07.06c-1.16.1-1.76.77-1.9,1.89-.3.05-.42.22-.35.52-.6.33-.86.81-.69,1.49l-.05.17Z"/>
  <path class="cls-2" d="m245.86,166.55c5.94.66,11.98-.23,17.89,1.05.58.2,1.15.41,1.73.61.49.85,1.27,1.25,2.21,1.38,1.55,1.8,3.1,3.61,4.65,5.41.08,1.16.39,2.23,1.21,3.09,0,3.4,0,6.8-.01,10.2-.21.57-.42,1.13-.64,1.7-3.75,7.1-9.85,9.82-17.62,9.59-2.46-.07-4.94.18-7.41.28-.65,0-1.29-.02-1.94-.02-.75-.05-1.5-.1-2.24-.15-.89-2.23-.57-4.57-.6-6.87-.13-8.26-.22-16.52-.33-24.78.44-.49.87-.98,1.31-1.47.6,0,1.19-.01,1.79-.02Zm5.46,11.5c-.01.31-.03.62-.04.93-.41,1.69-.41,3.39,0,5.08,0,.63,0,1.26,0,1.89,0,1.37.01,2.74.02,4.11-.3.73-.38,1.36.66,1.5,2.38.82,4.73.69,7.03-.31,1.02.18,1.8-.19,2.35-1.06.31.06.49-.07.54-.39,1.03-.18,1.65-.74,1.71-1.83.35-.13.48-.38.41-.75,2.07-2.79,2.02-5.57-.04-8.34-.4-1.61-1.44-2.57-3.02-2.99-.39-.92-1.11-1.16-2.03-.95-2.28-.85-4.58-1.33-6.93-.28-.96.05-1.06.53-.64,1.28,0,.7,0,1.4-.01,2.1Z"/>
  <path class="cls-2" d="m119,176.29c-.08.22,0,.37.21.45,0,.38,0,.75-.02,1.12-.5,2.42-.25,5.44-1.64,7.13-3.45,4.21-3.28,7.63.25,11.52,2.04,2.24.59,2.83-1.82,3.11-4.15.48-7.03-.82-8.66-4.77-1.03-2.51-3.24-2.6-5.45-2.23-2.44.41-1.67,2.48-1.78,3.99-.09,1.2-.25,2.3-1.17,3.15-.64.03-1.29.06-1.93.08-1.17-.02-2.34-.04-3.51-.05-.47-.36-.95-.72-1.42-1.08-.07-6.9-.14-13.8-.2-20.7-.01-.68-.02-1.36-.03-2.03.58-2.65.45-5.31.1-7.97.32-.22.4-.5.25-.85l-.12.08c1.71-.31,3.41-.62,5.12-.94l.11.05c.45,0,.9-.02,1.35-.02,0,0,.12-.05.12-.05,2.33,1.01,4.72.55,7.11.29,2.3.51,4.6,1.02,6.9,1.53.39.26.78.52,1.17.78,2.35,2.02,3.64,4.75,5.05,7.41Zm-19.01,3.4c.18,2.45-.95,5.67,3.55,5.42,3.7-.2,6.81-1.23,6.79-5.52-.02-3.91-2.89-5.19-6.39-5.53-4.74-.46-3.74,2.98-3.95,5.63Z"/>
  <path class="cls-2" d="m176.39,174.93c0-.95,0-1.91,0-2.86.85-1.43.65-2.89.13-4.35,2.94-2.07,6.37-.27,9.46-1.17.4-.06.79-.11,1.19-.17,0,0,.09.04.09.04.52.02,1.05.04,1.57.06,2.67.53,5.34,1.06,8.01,1.59.36.23.71.47,1.07.7,1.09,1.09,2.17,2.18,3.26,3.27.23.38.46.75.69,1.13.37.95.75,1.89,1.12,2.84.09.68.18,1.36.27,2.04-.15,1.65-.29,3.31-.44,4.96-.08.32-.16.64-.24.96-.67,1.13-1.11,2.53-2.05,3.35-2.67,2.35-1.83,4.38-.1,6.82,1.02,1.44,3.59,3.93,1.81,4.82-2.45,1.23-6.12,1.85-8.68-.9-1.11-1.19-1.91-2.67-2.85-4.02-.74-1.99-2.26-1.52-3.73-1.18-4.99,0-1.45,4.37-3.13,6.07-4.69.66-7.94-.32-7.04-6.12.04-.26-.25-.57-.39-.86,0-1.96,0-3.91,0-5.87.7-.71.69-1.43,0-2.14l-.39-5.94c0-.65,0-1.29,0-1.94,0,0,.33.07.33.07.59-.38.63-.78.05-1.21Zm15.62,8.59c3.83-2.15,3.26-5.1.83-7.61-2.18-2.25-6-3.15-7.93-.88-1.84,2.16-1.74,6.49-.12,8.88,1.56,2.29,4.89,1.8,7.22-.39h0Z"/>
  <path class="cls-2" d="m312.06,199.69c-1.41.06-2.82.13-4.23.19l-1.95-.02c-5.49-.5-10.98-.41-16.47-.05-.47-.43-.93-.85-1.4-1.28.31-6.84.53-13.69-.12-20.52,0-.66,0-1.33,0-1.99q1.03-8.93,9.06-9.48c2.98.09,5.96.25,8.94.25,6.97,0,6.97-.03,6.58,7.13-1.2.17-2.4.34-3.6.52-3.11-.13-6.22-.28-9.34-.37-2.17-.06-3.34.84-3.3,3.22.05,2.32,1.45,2.67,3.26,2.65,3.12-.03,6.25-.06,9.37-.09.98,2.34.99,4.68-.05,7.01-1.65.07-3.31.14-4.96.21-2-.35-4-.44-5.99.08-2.62,1.11-2.53,2.61-.62,4.37l.27.08c.44.06.88.11,1.32.17,2.33.41,4.66.46,6.99-.03,2,.51,4.01.48,6.03.19l.19.26s.32-.04.32-.04c.31,2.53.63,5.06-.31,7.53Z"/>
  <path class="cls-2" d="m2.14,192.72c-2.2-4.7-2.36-9.68-1.98-14.73.13-.49.26-.99.39-1.48,0,0-.02-.12-.02-.12.8-.47,1.15-1.19,1.15-2.1.16-.32.32-.64.48-.95.31-.43.62-.86.93-1.29.64-.68,1.28-1.37,1.93-2.05,1.11-.18,1.84-.86,2.38-1.8.31-.19.63-.38.94-.57.95-.33,1.9-.66,2.84-.99,3.7-.75,7.41-.57,11.13-.2.85.35,1.71.69,2.56,1.04.55.25,1.09.51,1.64.76.33.59.79.91,1.49.72,2.29,1.8,3.87,4,3.93,7.04-.38.3-.76.59-1.15.89-2.23.27-4.01,3.32-6.66,1.08-.18-.89-.74-1.37-1.61-1.54-.11.06-.22.12-.33.18.1-.07.2-.14.31-.21-.45-1.07-1.24-1.59-2.41-1.49l.05.03-1.07-.45c-1.77-.72-3.5-.89-5.12.38-1.18-.02-1.96.56-2.39,1.64,0,0,0,0,.01,0-.82.19-1.35.65-1.41,1.54-.3.08-.4.27-.31.56-2.09,2.97-2.17,5.95-.03,8.93,3.58,5.62,8.37,6.53,13.6,1.83,3.38-3.05,5.3-.34,7.21,1.16,2.54,1.99-.11,3.71-1.35,4.77-5.22,4.46-11.03,7.27-18.14,4.7-.33-1.05-.99-1.1-1.83-.6l-.25-.07s.14-.16.14-.16c-.62-.43-1.25-.85-1.88-1.28-.43-.29-.86-.59-1.29-.88-.38-.32-.76-.64-1.14-.95,0-.58-.28-.93-.89-.95-.31-.37-.63-.74-.94-1.1-.31-.42-.61-.84-.92-1.26Z"/>
  <path class="cls-2" d="m158.73,171.38c.62,1.22,1.24,2.44,1.86,3.66.19,1,.38,2,.57,3-.04,1.33-.09,2.65-.13,3.98-.13.63-.26,1.26-.39,1.88-.61,1.27-1.23,2.54-1.84,3.81-1.12,1-2.23,2-3.35,3-3.1,1.29-6.3,2.06-9.68,1.81-2.44-.17-3.9.63-3.58,3.33.45,3.84-2.04,3.65-4.71,3.76-3.38.14-3.17-1.97-3.2-4.22-.06-5.79-.21-11.58-.32-17.38,0-.66-.01-1.33-.02-1.99.11-1.78.47-3.59.28-5.34-.33-3.01.97-4.2,3.81-4.14,4.98.26,9.97.51,14.95.77l.29.05c.55.26,1.09.52,1.64.77l-.05-.02c1.29,1.09,2.58,2.19,3.87,3.28Zm-16.62,7.96c.14,2.75-1.02,6.14,3.81,5.78,3.54-.27,6.41-1.35,6.49-5.34.09-4.3-2.98-5.44-6.67-5.72-4.51-.35-3.38,2.96-3.63,5.29Z"/>
  <path class="cls-2" d="m222.92,166.55c2.37.07,4.02.73,3.7,3.67-.17,1.57.16,3.2.26,4.8-.45,1.33-.46,2.66-.01,4-.43,1.67-.43,3.33,0,5-.29,5.2-.59,10.39-.88,15.59-2.33-.04-4.66-.09-6.98-.13.1-.5-.11-.71-.61-.67.01-6.94.57-13.88-.32-20.8-.02-.65-.03-1.3-.05-1.95.94-2.89.27-5.86.47-8.79,1.47-.23,2.95-.46,4.42-.7Z"/>
  <path class="cls-1" d="m176.52,167.71c.51,1.47.72,2.93-.13,4.35-.57-1.47-.69-2.93.13-4.35Z"/>
  <path class="cls-1" d="m176.39,174.93c.57.43.54.83-.05,1.21.02-.4.04-.8.05-1.21Z"/>
  <path class="cls-1" d="m183.83,198.93c-7.29,2.66-8.62,1.41-7.43-6.98.14.29.43.6.39.86-.9,5.8,2.35,6.78,7.04,6.12Z"/>
  <path class="cls-1" d="m176.39,186.08c0-.71,0-1.43,0-2.14.69.71.7,1.43,0,2.14Z"/>
  <path class="cls-2" d="m169.14,122.32c-20.58-.43-38.05-12.37-45.43-31.06-7.45-18.86-3.04-39.77,11.36-53.9,14.59-14.31,35.4-18.17,54.55-10.24,3.33,1.38,5.8,3.29,4.28,7.08-1.61,4.01-4.79,3.66-8.34,2.23-22.37-8.95-46.79,2.31-53.55,24.56-6.87,22.62,6.72,45.3,30.28,50.56,7.4,1.65,14.56.55,21.6-1.92,1.1-.39,2.15-.92,3.25-1.27,3.13-1.02,5.72-.36,6.91,2.93,1.1,3.03-.36,5.15-3.12,6.45-6.9,3.25-14.17,4.76-21.79,4.6Z"/>
</svg>